<svg id="Layer_1" data-name="Layer 1" xmlns="http://www.w3.org/2000/svg" viewBox="0 0 492 491.97"><defs><style>.cls-1{fill:#2ec4b6;}</style></defs><title>close_blue</title><path class="cls-1" d="M300.19,246l184-184a27,27,0,0,0,0-38.05L468,7.87a27,27,0,0,0-38.06,0L246,191.82,62,7.87a27,27,0,0,0-38,0L7.87,24A26.93,26.93,0,0,0,7.87,62l184,184L7.87,430a27,27,0,0,0,0,38.06L24,484.13a27,27,0,0,0,38,0l184-184,184,184A26.7,26.7,0,0,0,449,492h0a26.7,26.7,0,0,0,19-7.86L484.14,468a27,27,0,0,0,0-38.06Z" transform="translate(0 -0.02)"/></svg>